<svg width="4547" height="4547" viewBox="0 0 4547 4547" fill="none" xmlns="http://www.w3.org/2000/svg">
<rect x="348.794" y="2483.05" width="43" height="218" transform="rotate(-95.7 348.794 2483.05)" fill="white" stroke="white"/>
<rect x="1051.83" y="771.386" width="43" height="218" transform="rotate(-38.6 1051.83 771.386)" fill="white" stroke="white"/>
<rect x="718.704" y="1119.62" width="43" height="218" transform="rotate(-52.9 718.704 1119.62)" fill="white" stroke="white"/>
<rect x="481.918" y="1539.35" width="43" height="218" transform="rotate(-67.2 481.918 1539.35)" fill="white" stroke="white"/>
<rect x="356.373" y="2002.88" width="43" height="218" transform="rotate(-81.45 356.373 2002.88)" fill="white" stroke="white"/>
<rect x="460.232" y="2951.9" width="43" height="218" transform="rotate(-110 460.232 2951.9)" fill="white" stroke="white"/>
<rect x="460.232" y="2951.9" width="43" height="218" transform="rotate(-110 460.232 2951.9)" fill="white" stroke="white"/>
<rect x="1006.3" y="3736.99" width="43" height="218" transform="rotate(-138.6 1006.3 3736.99)" fill="white" stroke="white"/>
<rect x="1406.19" y="4004.12" width="43" height="218" transform="rotate(-152.87 1406.19 4004.12)" fill="white" stroke="white"/>
<rect x="3219.51" y="3962.17" width="43" height="218" transform="rotate(151.26 3219.51 3962.17)" fill="white" stroke="white"/>
<rect x="3606.36" y="3677.05" width="43" height="218" transform="rotate(137 3606.36 3677.05)" fill="white" stroke="white"/>
<rect x="3911.79" y="3304.29" width="43" height="218" transform="rotate(122.7 3911.79 3304.29)" fill="white" stroke="white"/>
<rect x="684.026" y="3378.69" width="43" height="218" transform="rotate(-124.3 684.026 3378.69)" fill="white" stroke="white"/>
<rect x="4115.68" y="2867.63" width="43" height="218" transform="rotate(108.4 4115.68 2867.63)" fill="white" stroke="white"/>
<rect x="4205.29" y="2395.84" width="43" height="218" transform="rotate(94.15 4205.29 2395.84)" fill="white" stroke="white"/>
<rect x="4176.01" y="1916.49" width="43" height="218" transform="rotate(79.9 4176.01 1916.49)" fill="white" stroke="white"/>
<rect x="4028.93" y="1457.58" width="43" height="218" transform="rotate(65.6 4028.93 1457.58)" fill="white" stroke="white"/>
<rect x="3773.05" y="1049.21" width="43" height="218" transform="rotate(51.3 3773.05 1049.21)" fill="white" stroke="white"/>
<rect x="3424.24" y="716.696" width="43" height="218" transform="rotate(37 3424.24 716.696)" fill="white" stroke="white"/>
<rect x="3007.23" y="481.92" width="43" height="218" transform="rotate(22.8 3007.23 481.92)" fill="white" stroke="white"/>
<rect x="2541.69" y="356.094" width="43" height="218" transform="rotate(8.49 2541.69 356.094)" fill="white" stroke="white"/>
</svg>
